# xmcd
#
# Track frame offsets: 
#        150
#        35647
#        81575
#        128797
#        152492
#        182452
#        223825
#
# Disc length: 3307 seconds
#
# Revision: 4
# Processed by: cddbd v1.5.2PL0 Copyright (c) Steve Scherf et al.
# Submitted via: ExactAudioCopy v0.99pb5
#
DISCID=5c0ce907
DTITLE=Sonny Rollins - The Freelance Years - The Complete Riverside and 
DTITLE=Contemporary Recordings - CD2
DYEAR=2000
DGENRE=Jazz
TTITLE0=Solitude
TTITLE1=I'm An Old Cowhand (alternate take)
TTITLE2=Come, Gone (alternate)
TTITLE3=There Is No Greater Love (take 2)
TTITLE4=Way Out West (alternate)
TTITLE5=Falling In Love With Love
TTITLE6=My Old Flame
EXTD=YEAR: 2000
EXTT0=
EXTT1=
EXTT2=
EXTT3=
EXTT4=
EXTT5=
EXTT6=
PLAYORDER=
